<?xml version="1.0" encoding="utf-8"?>
<!-- Generator: Adobe Illustrator 24.0.0, SVG Export Plug-In . SVG Version: 6.00 Build 0)  -->
<svg version="1.1" id="Layer_1" xmlns="http://www.w3.org/2000/svg" xmlns:xlink="http://www.w3.org/1999/xlink" x="0px" y="0px"
	 viewBox="0 0 156 156" style="enable-background:new 0 0 156 156;" xml:space="preserve">
<style type="text/css">
	.st0{fill:#FFFFFF;}
	.st1{fill:#C4C4C4;}
	.st2{fill-rule:evenodd;clip-rule:evenodd;fill-opacity:0.25;}
</style>
<g>
	<circle class="st0" cx="78" cy="78" r="71"/>
	<path class="st1" d="M78,12.5c36.1,0,65.5,29.4,65.5,65.5s-29.4,65.5-65.5,65.5S12.5,114.1,12.5,78S41.9,12.5,78,12.5 M78,1.5
		C35.8,1.5,1.5,35.8,1.5,78s34.3,76.5,76.5,76.5s76.5-34.3,76.5-76.5S120.2,1.5,78,1.5L78,1.5z"/>
</g>
<path class="st2" d="M91.4,76.3l24.3-16.2L91.4,43.8v10.3H46.7V66h44.8L91.4,76.3L91.4,76.3z"/>
<path class="st2" d="M71,77.6L46.7,93.9L71,110.1V99.8h44.8V87.9H71V77.6z"/>
</svg>
