<?xml version="1.0" encoding="utf-8"?>
<!-- Generator: Adobe Illustrator 24.0.0, SVG Export Plug-In . SVG Version: 6.00 Build 0)  -->
<svg version="1.1" id="Layer_1" xmlns="http://www.w3.org/2000/svg" xmlns:xlink="http://www.w3.org/1999/xlink" x="0px" y="0px"
	 viewBox="0 0 100 103.4" style="enable-background:new 0 0 100 103.4;" xml:space="preserve">
<g>
	<path d="M16.5,16.8c-5.3,0-9.9,4.7-9.9,9.9v60c0,5.6,4.7,9.9,9.9,9.9h66.7c5.6,0,10.3-4.3,10.3-9.9V26.8c0-5.3-4.7-9.9-10.3-9.9
		h-3.9v6.7c0,9-13.3,9-13.3,0v-6.8H35.7v6.7c0,9-13.6,9-13.6,0v-6.7H16.5z M13.1,39.3h73.3v47.4c0,2-1.3,3.3-3.3,3.3H16.4
		c-1.7,0-3.3-1.3-3.3-3.3L13.1,39.3L13.1,39.3z"/>
	<path d="M69.2,13.4v9.9c0,4.3,6.7,4.3,6.7,0v-9.9C75.9,9.1,69.2,9.1,69.2,13.4z"/>
	<path d="M25.4,13.4v9.9c0,4.3,6.7,4.3,6.7,0v-9.9C32.1,9.1,25.4,9.1,25.4,13.4z"/>
	<rect x="22.4" y="48.9" width="12.6" height="12.6"/>
	<rect x="22.4" y="68.9" width="12.6" height="12.6"/>
	<rect x="44" y="48.9" width="12.6" height="12.6"/>
	<rect x="44" y="68.9" width="12.6" height="12.6"/>
	<rect x="65.9" y="48.9" width="12.6" height="12.6"/>
	<rect x="65.9" y="68.9" width="12.6" height="12.6"/>
</g>
</svg>
