<?xml version="1.0" encoding="utf-8"?>
<!-- Generator: Adobe Illustrator 24.0.0, SVG Export Plug-In . SVG Version: 6.00 Build 0)  -->
<svg version="1.1" id="Layer_1" xmlns="http://www.w3.org/2000/svg" xmlns:xlink="http://www.w3.org/1999/xlink" x="0px" y="0px"
	 viewBox="0 0 48 60" style="enable-background:new 0 0 48 60;" xml:space="preserve">
<style type="text/css">
	.st0{fill:#FFFFFF;}
</style>
<title>ecommerce, commerce, Cs, customer service, person, ask, informant</title>
<path class="st0" d="M43,25.2c0,0,0-0.1,0-0.1c0-8.7-7.5-15.8-16.8-15.8h-4.5C12.5,9.2,5,16.3,5,25c0,0,0,0.1,0,0.1
	c-1.9,0.5-3.2,2.2-3.2,4.1v5.3c0,2.3,1.9,4.2,4.2,4.2h2.1c0,8.2,6.6,14.8,14.8,14.8h2.1c7,0,12.5-4.7,13.7-9.1
	c1.3-0.5,2.4-1.4,3.2-2.5c0.7-1,1.1-2.1,1.2-3.4c1.8-0.5,3.1-2.1,3.1-4v-5.3C46.2,27.3,44.9,25.6,43,25.2z M21.8,11.3h4.5
	c8.1,0,14.6,6.2,14.6,13.7h-1.2c-1-6.1-6.3-10.5-12.5-10.6h-6.3c-6.2,0-11.4,4.5-12.5,10.6H7.1C7.1,17.5,13.7,11.3,21.8,11.3z
	 M37.7,27.1H24.1c-2.6,0-4.9-1.9-5.4-4.4c-0.1-0.6-0.6-1-1.2-0.9c-0.6,0.1-1,0.6-0.9,1.2c0,1.2-0.9,2.1-2.1,2.1h-4
	c1-4.9,5.3-8.4,10.3-8.4h6.3C33,16.6,37.7,21.3,37.7,27.1z M6.1,36.6c-1.2,0-2.1-0.9-2.1-2.1v-5.3c0-1.2,0.9-2.1,2.1-2.1h2.1v9.5
	H6.1z M29.1,44c-0.4-1.3-1.6-2.1-3-2.1h-4.2c-1.7,0-3.2,1.4-3.2,3.2c0,1.7,1.4,3.2,3.2,3.2h4.2c1.3,0,2.5-0.8,3-2.1
	c2.4,0,4.7-0.3,7-0.8c-1.6,3.2-5.9,6.1-11.1,6.1h-2.1c-7,0-12.7-5.7-12.7-12.7V27.1h4.2c1.2,0,2.4-0.5,3.2-1.4
	c1.4,2.2,3.8,3.5,6.4,3.5h13.6v8.4c0,0.6,0.5,1.1,1.1,1.1H41c0,0.7-0.3,1.4-0.7,1.9C39.1,42.1,36.3,43.9,29.1,44z M27.2,45.1
	c0,0.6-0.5,1.1-1.1,1.1h-4.2c-0.6,0-1.1-0.5-1.1-1.1s0.5-1.1,1.1-1.1h4.2C26.7,44,27.2,44.5,27.2,45.1z M44.1,34.5
	c0,1.2-0.9,2.1-2.1,2.1h-2.1v-9.5h2.1c1.2,0,2.1,0.9,2.1,2.1V34.5z"/>
</svg>
