<?xml version="1.0" encoding="utf-8"?>
<!-- Generator: Adobe Illustrator 24.0.0, SVG Export Plug-In . SVG Version: 6.00 Build 0)  -->
<svg version="1.1" id="Layer_1" xmlns="http://www.w3.org/2000/svg" xmlns:xlink="http://www.w3.org/1999/xlink" x="0px" y="0px"
	 viewBox="0 0 64 80" style="enable-background:new 0 0 64 80;" xml:space="preserve">
<style type="text/css">
	.st0{fill:#FFFFFF;}
</style>
<title>gift, rewards, presents</title>
<g>
	<path class="st0" d="M54,25.1H41c2-1,3.7-2.5,4.9-4.3c1.2-1.9,1.4-3.7,0.6-5c-0.8-1.2-2.1-1.8-3.5-1.5c-4.7,0.4-8.9,5.4-10.9,8.2
		c-2-2.9-6.2-7.9-10.9-8.2c-1.4-0.3-2.8,0.3-3.5,1.5c-0.8,1.3-0.6,3.1,0.6,5c1.2,1.8,2.9,3.3,4.9,4.3H10c-0.8,0-1.5,0.7-1.5,1.5v8.7
		c0,0.8,0.7,1.5,1.5,1.5h0.4v23.9c0,0.8,0.7,1.5,1.5,1.5l0,0h40.3c0.8,0,1.5-0.7,1.5-1.5l0,0V36.8H54c0.8,0,1.5-0.7,1.5-1.5v-8.7
		C55.5,25.8,54.8,25.1,54,25.1C54,25.1,54,25.1,54,25.1z M34.8,28.1v5.7h-5.5v-5.7H34.8z M52.5,33.8H37.8v-5.7h14.7V33.8z
		 M43.2,17.3c0.1,0,0.2,0,0.2,0c0.2,0,0.3,0,0.5,0.1c0.1,0.1,0.1,0.8-0.6,1.9c-2,2.7-5.1,4.4-8.5,4.6C36.8,21.1,40.1,17.6,43.2,17.3
		L43.2,17.3z M20.7,19.3c-0.7-1.1-0.7-1.7-0.6-1.9c0.2-0.1,0.3-0.1,0.5-0.1c0.1,0,0.1,0,0.2,0c3.1,0.2,6.4,3.8,8.4,6.5
		C25.8,23.7,22.7,22,20.7,19.3z M11.5,28.1h14.7v5.7H11.5V28.1z M13.4,37.1h12.9v22.2H13.4V37.1z M29.3,59.2V37.1h5.5v22.2
		L29.3,59.2z M50.7,59.2H37.8V37.1h12.9V59.2z"/>
</g>
</svg>
