<?xml version="1.0" encoding="utf-8"?>
<!-- Generator: Adobe Illustrator 24.0.0, SVG Export Plug-In . SVG Version: 6.00 Build 0)  -->
<svg version="1.1"
	 id="Layer_1" xmlns:cc="http://creativecommons.org/ns#" xmlns:dc="http://purl.org/dc/elements/1.1/" xmlns:inkscape="http://www.inkscape.org/namespaces/inkscape" xmlns:rdf="http://www.w3.org/1999/02/22-rdf-syntax-ns#" xmlns:sodipodi="http://sodipodi.sourceforge.net/DTD/sodipodi-0.dtd" xmlns:svg="http://www.w3.org/2000/svg"
	 xmlns="http://www.w3.org/2000/svg" xmlns:xlink="http://www.w3.org/1999/xlink" x="0px" y="0px" viewBox="0 0 12.7 12.8"
	 style="enable-background:new 0 0 12.7 12.8;" xml:space="preserve">
<style type="text/css">
	.st0{fill:#FFFFFF;}
</style>
<g>
	<path class="st0" d="M3.5,2.3c-0.2,0-0.3,0.2-0.3,0.3c0,0,0,0,0,0v0.4H1.6c-0.2,0-0.3,0.1-0.3,0.3c0,0,0,0,0,0v1.9
		c0,0.1,0,0.1,0,0.2v3.6c0,0.2,0.2,0.3,0.3,0.3h5.3c0.1,1.3,1.2,2.4,2.5,2.4c1.4,0,2.5-1.1,2.5-2.5c0-1.1-0.7-2.1-1.8-2.4V3.4
		c0-0.2-0.1-0.3-0.3-0.3c0,0,0,0,0,0H8.3V2.7c0-0.2-0.1-0.3-0.3-0.3c0,0,0,0,0,0c-0.2,0-0.3,0.2-0.3,0.3v0.4H3.8V2.7
		C3.8,2.5,3.7,2.4,3.5,2.3C3.5,2.3,3.5,2.3,3.5,2.3z M1.9,3.8h1.2v0.4c0,0.2,0.1,0.3,0.3,0.3c0.2,0,0.3-0.1,0.3-0.3c0,0,0,0,0,0V3.8
		h3.8v0.4c0,0.2,0.1,0.3,0.3,0.3c0.2,0,0.3-0.1,0.3-0.3c0,0,0,0,0,0V3.8h1.2v1.3H1.9V3.8z M1.9,5.8h7.6v1.1c0,0,0,0-0.1,0
		c-0.1,0-0.2,0-0.2,0C8.1,7,7.2,7.8,7,8.8H1.9V5.8z M9.4,7.5C9.4,7.5,9.4,7.5,9.4,7.5c0.1,0,0.2,0,0.3,0c0,0,0,0,0,0
		c0.8,0.2,1.5,0.9,1.5,1.8c0,1-0.8,1.8-1.8,1.8s-1.8-0.8-1.8-1.8c0,0,0-0.1,0-0.1c0,0,0,0,0,0c0-0.4,0.2-0.7,0.4-0.9c0,0,0,0,0,0
		C8,8.1,8.1,8.1,8.2,8c0,0,0,0,0,0c0.1-0.1,0.2-0.1,0.3-0.2c0,0,0,0,0,0c0.1-0.1,0.2-0.1,0.3-0.1c0,0,0,0,0,0c0.1,0,0.2-0.1,0.3-0.1
		c0,0,0,0,0.1,0c0,0,0.1,0,0.1,0c0,0,0,0,0,0C9.3,7.5,9.4,7.5,9.4,7.5z M10.2,8.4c-0.1,0-0.2,0-0.2,0.1L9.1,9.4L9,9.1
		C8.9,9,8.7,8.9,8.5,8.9C8.4,9,8.3,9.2,8.3,9.4c0,0,0,0,0,0l0.3,0.7c0.1,0.2,0.3,0.2,0.4,0.2c0,0,0.1,0,0.1-0.1L10.5,9
		c0.1-0.1,0.1-0.3,0-0.5C10.4,8.4,10.3,8.4,10.2,8.4z"/>
</g>
</svg>
