<?xml version="1.0" encoding="utf-8"?>
<!-- Generator: Adobe Illustrator 24.0.0, SVG Export Plug-In . SVG Version: 6.00 Build 0)  -->
<svg version="1.1" id="Layer_1" xmlns="http://www.w3.org/2000/svg" xmlns:xlink="http://www.w3.org/1999/xlink" x="0px" y="0px"
	 viewBox="0 0 100 108.2" style="enable-background:new 0 0 100 108.2;" xml:space="preserve">
<style type="text/css">
	.st0{fill:#FB9C0D;}
</style>
<g id="Layer_2_1_">
</g>
<g id="Layer_1_1_">
	<path class="st0" d="M96.8,51.3l-3.9-1.7c-3.6-1.6-7.4-2.5-11.3-2.5l-14.2,0L40.5,7.1c-0.8-1.2-2.2-1.9-3.6-1.9l-3.3,0
		c-0.4,0-0.9,0.5-0.8,1.1l13.5,41.2l-27.5,1.4L9.2,32.3c-0.3-0.6-0.9-0.9-1.5-0.9l-2.8,0c-0.4,0-0.9,0.5-0.8,1.2l4.8,18.7l-1.8,1.1
		c-1.3,0.9-1.3,2.6,0,3.5l1.8,1.1L4.1,75.6C4,76.2,4.3,76.7,5,76.8h2.8c0.6,0,1.2-0.4,1.5-0.9L19,59.3l27.4,1.4l-13.5,41.2
		c-0.1,0.6,0.2,1.1,0.8,1.1H37c1.4,0,2.9-0.7,3.6-1.9L67.3,61l14.2,0c3.8,0,7.8-0.8,11.3-2.5l3.9-1.7C99.1,55.5,99.1,52.3,96.8,51.3
		z"/>
</g>
</svg>
