<svg width="36" height="36" viewBox="0 0 36 36" fill="none" xmlns="http://www.w3.org/2000/svg">
<path fill-rule="evenodd" clip-rule="evenodd" d="M23.5196 19.9135C26.8286 14.9322 26.2873 8.1483 21.8957 3.75671C16.8868 -1.25224 8.76567 -1.25224 3.75671 3.75671C-1.25224 8.76567 -1.25224 16.8868 3.75671 21.8957C8.14827 26.2873 14.9321 26.8286 19.9133 23.5196L31.6471 35.2534C32.6429 36.2492 34.2574 36.2492 35.2533 35.2534C36.2491 34.2575 36.2491 32.643 35.2533 31.6472L23.5196 19.9135ZM19.4847 6.16746C23.1622 9.84492 23.1622 15.8073 19.4847 19.4847C15.8073 23.1622 9.84495 23.1622 6.16749 19.4847C2.49003 15.8073 2.49003 9.84492 6.16749 6.16746C9.84495 2.49 15.8073 2.49 19.4847 6.16746Z" fill="white"/>
</svg>
