<?xml version="1.0" encoding="utf-8"?>
<!-- Generator: Adobe Illustrator 24.0.0, SVG Export Plug-In . SVG Version: 6.00 Build 0)  -->
<svg version="1.1" id="Layer_1" xmlns="http://www.w3.org/2000/svg" xmlns:xlink="http://www.w3.org/1999/xlink" x="0px" y="0px"
	 viewBox="0 0 64 80" style="enable-background:new 0 0 64 80;" xml:space="preserve">
<style type="text/css">
	.st0{fill-rule:evenodd;clip-rule:evenodd;fill:#FFFFFF;}
</style>
<path class="st0" d="M44.4,17H19.6c-3.4,0-6.2,2.4-6.7,5.7H32h19.1C50.6,19.5,47.8,17,44.4,17z M30.9,25H12.8v4.5v2.3v7.9v2.3v4.5
	h18.1V25z M33.1,46.5V25h18.1v4.5v2.3v7.9v2.3v4.5H33.1z M32,48.7H12.8v10.2c0,1.2,1,2.3,2.3,2.3h1.1h3.4h2.3h20.4h2.3h3.4H49
	c1.2,0,2.3-1,2.3-2.3V48.7H32z M53.4,22.7c-0.6-4.5-4.4-7.9-9-7.9H19.6c-5,0-9,4.1-9,9v5.7C8,29.5,6,31.5,6,34v3.4
	c0,2.5,2,4.5,4.5,4.5v17c0,2.1,1.4,3.9,3.4,4.4v0.1v2.3c0,1.9,1.5,3.4,3.4,3.4h1.1c1.9,0,3.4-1.5,3.4-3.4v-2.3h20.4v2.3
	c0,1.9,1.5,3.4,3.4,3.4h1.1c1.9,0,3.4-1.5,3.4-3.4v-2.3v-0.1c2-0.5,3.4-2.3,3.4-4.4V48.7v-2.3v-4.5c2.5,0,4.5-2,4.5-4.5V34
	c0-2.5-2-4.5-4.5-4.5V25v-1.1L53.4,22.7L53.4,22.7z M10.5,39.7v-7.9c-1.2,0-2.3,1-2.3,2.3v3.4C8.3,38.7,9.3,39.7,10.5,39.7z
	 M55.7,37.4c0,1.2-1,2.3-2.3,2.3v-7.9c1.2,0,2.3,1,2.3,2.3V37.4z M47.8,63.4h-3.4v2.3c0,0.6,0.5,1.1,1.1,1.1h1.1
	c0.6,0,1.1-0.5,1.1-1.1V63.4z M16.2,65.7v-2.3h3.4v2.3c0,0.6-0.5,1.1-1.1,1.1h-1.1C16.7,66.8,16.2,66.3,16.2,65.7z M26.3,55.5
	c0-0.6,0.5-1.1,1.1-1.1h9c0.6,0,1.1,0.5,1.1,1.1c0,0.6-0.5,1.1-1.1,1.1h-9C26.9,56.6,26.3,56.1,26.3,55.5z M35.7,29.8
	c0.4-0.4,1.2-0.4,1.6,0L47.5,40c0.4,0.4,0.4,1.2,0,1.6c-0.4,0.4-1.2,0.4-1.6,0L35.7,31.4C35.3,31,35.3,30.3,35.7,29.8z M43,28.7
	c-0.4-0.4-1.2-0.4-1.6,0c-0.4,0.4-0.4,1.2,0,1.6l5.7,5.7c0.4,0.4,1.2,0.4,1.6,0c0.4-0.4,0.4-1.2,0-1.6L43,28.7z M44.4,56.6
	c0.6,0,1.1-0.5,1.1-1.1c0-0.6-0.5-1.1-1.1-1.1c-0.6,0-1.1,0.5-1.1,1.1C43.3,56.1,43.8,56.6,44.4,56.6z M44.4,58.9
	c1.9,0,3.4-1.5,3.4-3.4c0-1.9-1.5-3.4-3.4-3.4c-1.9,0-3.4,1.5-3.4,3.4C41,57.4,42.6,58.9,44.4,58.9z M20.7,55.5
	c0,0.6-0.5,1.1-1.1,1.1c-0.6,0-1.1-0.5-1.1-1.1c0-0.6,0.5-1.1,1.1-1.1C20.2,54.4,20.7,54.9,20.7,55.5z M23,55.5
	c0,1.9-1.5,3.4-3.4,3.4s-3.4-1.5-3.4-3.4c0-1.9,1.5-3.4,3.4-3.4S23,53.6,23,55.5z"/>
</svg>
