<?xml version="1.0" encoding="utf-8"?>
<!-- Generator: Adobe Illustrator 24.0.0, SVG Export Plug-In . SVG Version: 6.00 Build 0)  -->
<svg version="1.1" id="Layer_1" xmlns="http://www.w3.org/2000/svg" xmlns:xlink="http://www.w3.org/1999/xlink" x="0px" y="0px"
	 viewBox="0 0 38 48" style="enable-background:new 0 0 38 48;" xml:space="preserve">
<g>
	<path d="M33,48H5c-2.7,0-5-2.3-5-5V5c0-2.7,2.3-5,5-5h28c2.7,0,5,2.3,5,5v38C38,45.7,35.7,48,33,48z M5,3C3.9,3,3,3.9,3,5v38
		c0,1.1,0.9,2,2,2h28c1.1,0,2-0.9,2-2V5c0-1.1-0.9-2-2-2H5z"/>
</g>
<circle cx="10.5" cy="13" r="2.5"/>
<circle cx="10.5" cy="24" r="2.5"/>
<circle cx="10.5" cy="35" r="2.5"/>
<path d="M18.5,10.5h9c1.4,0,2.5,1.1,2.5,2.5l0,0c0,1.4-1.1,2.5-2.5,2.5h-9c-1.4,0-2.5-1.1-2.5-2.5l0,0C16,11.6,17.1,10.5,18.5,10.5z
	"/>
<path d="M18.5,21.5h9c1.4,0,2.5,1.1,2.5,2.5l0,0c0,1.4-1.1,2.5-2.5,2.5h-9c-1.4,0-2.5-1.1-2.5-2.5l0,0C16,22.6,17.1,21.5,18.5,21.5z
	"/>
<path d="M18.5,32.5h9c1.4,0,2.5,1.1,2.5,2.5l0,0c0,1.4-1.1,2.5-2.5,2.5h-9c-1.4,0-2.5-1.1-2.5-2.5l0,0C16,33.6,17.1,32.5,18.5,32.5z
	"/>
</svg>
